<svg width="25" height="24" viewBox="0 0 25 24" fill="none" xmlns="http://www.w3.org/2000/svg">
<path d="M8.27204 2.43899L9.34904 2.09499C10.357 1.77299 11.435 2.29399 11.867 3.31199L12.727 5.33999C13.102 6.22299 12.894 7.26199 12.213 7.90799L10.32 9.70599C10.4367 10.782 10.798 11.841 11.404 12.883C11.9803 13.8909 12.7525 14.7732 13.675 15.478L15.951 14.718C16.813 14.431 17.752 14.762 18.281 15.539L19.513 17.349C20.129 18.253 20.018 19.499 19.255 20.265L18.437 21.086C17.623 21.903 16.461 22.2 15.385 21.864C12.8464 21.072 10.512 18.721 8.38204 14.811C6.24937 10.8943 5.49671 7.57166 6.12404 4.84299C6.38804 3.69499 7.20604 2.77999 8.27404 2.43899" fill="white"/>
</svg>
